<mxfile host="app.diagrams.net" modified="2022-03-01T15:48:23.591Z" agent="5.0 (Macintosh; Intel Mac OS X 10_15_7) AppleWebKit/537.36 (KHTML, like Gecko) Chrome/98.0.4758.109 Safari/537.36" etag="Yjm0xR-qhC8kO60zdKLf" version="16.6.4" type="github">
  <diagram name="Page-1" id="74b105a0-9070-1c63-61bc-23e55f88626e">
    <mxGraphModel dx="1426" dy="745" grid="1" gridSize="10" guides="1" tooltips="1" connect="1" arrows="1" fold="1" page="1" pageScale="1.5" pageWidth="1169" pageHeight="826" background="none" math="0" shadow="0">
      <root>
        <mxCell id="0" style=";html=1;" />
        <mxCell id="1" style=";html=1;" parent="0" />
        <mxCell id="SWv0Pv7niIjmDPIGt94a-15" value="Issue VC" style="edgeStyle=orthogonalEdgeStyle;rounded=0;orthogonalLoop=1;jettySize=auto;html=1;exitX=1;exitY=0.5;exitDx=0;exitDy=0;entryX=0;entryY=0.5;entryDx=0;entryDy=0;" edge="1" parent="1" source="SWv0Pv7niIjmDPIGt94a-1" target="SWv0Pv7niIjmDPIGt94a-2">
          <mxGeometry relative="1" as="geometry" />
        </mxCell>
        <mxCell id="SWv0Pv7niIjmDPIGt94a-1" value="Issuer Controller" style="rounded=0;whiteSpace=wrap;html=1;" vertex="1" parent="1">
          <mxGeometry x="240" y="520" width="120" height="60" as="geometry" />
        </mxCell>
        <mxCell id="SWv0Pv7niIjmDPIGt94a-2" value="Issuer Agent" style="rounded=0;whiteSpace=wrap;html=1;" vertex="1" parent="1">
          <mxGeometry x="440" y="520" width="120" height="60" as="geometry" />
        </mxCell>
        <mxCell id="SWv0Pv7niIjmDPIGt94a-3" value="Proof Registry" style="rounded=0;whiteSpace=wrap;html=1;" vertex="1" parent="1">
          <mxGeometry x="560" y="730" width="120" height="60" as="geometry" />
        </mxCell>
        <mxCell id="SWv0Pv7niIjmDPIGt94a-4" value="" style="endArrow=classic;html=1;rounded=0;exitX=0.5;exitY=1;exitDx=0;exitDy=0;entryX=0;entryY=0.5;entryDx=0;entryDy=0;" edge="1" parent="1" source="SWv0Pv7niIjmDPIGt94a-2" target="SWv0Pv7niIjmDPIGt94a-3">
          <mxGeometry width="50" height="50" relative="1" as="geometry">
            <mxPoint x="640" y="680" as="sourcePoint" />
            <mxPoint x="690" y="630" as="targetPoint" />
          </mxGeometry>
        </mxCell>
        <mxCell id="SWv0Pv7niIjmDPIGt94a-5" value="Prerequisite: Endorser DID&lt;br&gt;Required: Schema + Cred_Def" style="edgeLabel;html=1;align=center;verticalAlign=middle;resizable=0;points=[];" vertex="1" connectable="0" parent="SWv0Pv7niIjmDPIGt94a-4">
          <mxGeometry x="-0.1267" y="-1" relative="1" as="geometry">
            <mxPoint as="offset" />
          </mxGeometry>
        </mxCell>
        <mxCell id="SWv0Pv7niIjmDPIGt94a-6" value="OCA Repository" style="rounded=0;whiteSpace=wrap;html=1;" vertex="1" parent="1">
          <mxGeometry x="560" y="840" width="120" height="60" as="geometry" />
        </mxCell>
        <mxCell id="SWv0Pv7niIjmDPIGt94a-7" value="" style="endArrow=classic;html=1;rounded=0;entryX=0;entryY=0.5;entryDx=0;entryDy=0;exitX=0.5;exitY=1;exitDx=0;exitDy=0;" edge="1" parent="1" source="SWv0Pv7niIjmDPIGt94a-8" target="SWv0Pv7niIjmDPIGt94a-6">
          <mxGeometry width="50" height="50" relative="1" as="geometry">
            <mxPoint x="320" y="680" as="sourcePoint" />
            <mxPoint x="690" y="630" as="targetPoint" />
          </mxGeometry>
        </mxCell>
        <mxCell id="SWv0Pv7niIjmDPIGt94a-9" value="Prerequisite: Schema Overlay&#39;s" style="edgeLabel;html=1;align=center;verticalAlign=middle;resizable=0;points=[];" vertex="1" connectable="0" parent="SWv0Pv7niIjmDPIGt94a-7">
          <mxGeometry x="0.0297" y="-1" relative="1" as="geometry">
            <mxPoint as="offset" />
          </mxGeometry>
        </mxCell>
        <mxCell id="SWv0Pv7niIjmDPIGt94a-8" value="Issuer Tool" style="rounded=0;whiteSpace=wrap;html=1;" vertex="1" parent="1">
          <mxGeometry x="240" y="620" width="120" height="60" as="geometry" />
        </mxCell>
        <mxCell id="SWv0Pv7niIjmDPIGt94a-10" value="" style="endArrow=classic;html=1;rounded=0;exitX=1;exitY=0.5;exitDx=0;exitDy=0;" edge="1" parent="1" source="SWv0Pv7niIjmDPIGt94a-8">
          <mxGeometry width="50" height="50" relative="1" as="geometry">
            <mxPoint x="640" y="680" as="sourcePoint" />
            <mxPoint x="500" y="580" as="targetPoint" />
          </mxGeometry>
        </mxCell>
        <mxCell id="SWv0Pv7niIjmDPIGt94a-11" value="Prerequisite: Endorser DID&lt;br&gt;Required: Schema + Cred_Def" style="edgeLabel;html=1;align=center;verticalAlign=middle;resizable=0;points=[];" vertex="1" connectable="0" parent="SWv0Pv7niIjmDPIGt94a-10">
          <mxGeometry x="-0.0057" y="4" relative="1" as="geometry">
            <mxPoint as="offset" />
          </mxGeometry>
        </mxCell>
        <mxCell id="SWv0Pv7niIjmDPIGt94a-13" value="Retreive OCA Overlay&#39;s&lt;br&gt;Form" style="endArrow=classic;startArrow=classic;html=1;rounded=0;exitX=0.75;exitY=1;exitDx=0;exitDy=0;entryX=0;entryY=0;entryDx=0;entryDy=0;" edge="1" parent="1" source="SWv0Pv7niIjmDPIGt94a-1" target="SWv0Pv7niIjmDPIGt94a-6">
          <mxGeometry width="50" height="50" relative="1" as="geometry">
            <mxPoint x="640" y="670" as="sourcePoint" />
            <mxPoint x="690" y="620" as="targetPoint" />
          </mxGeometry>
        </mxCell>
        <mxCell id="SWv0Pv7niIjmDPIGt94a-14" value="" style="endArrow=classic;html=1;rounded=0;exitX=0;exitY=1;exitDx=0;exitDy=0;entryX=1;entryY=0.25;entryDx=0;entryDy=0;" edge="1" parent="1" source="SWv0Pv7niIjmDPIGt94a-17" target="SWv0Pv7niIjmDPIGt94a-2">
          <mxGeometry width="50" height="50" relative="1" as="geometry">
            <mxPoint x="640" y="670" as="sourcePoint" />
            <mxPoint x="720" y="550" as="targetPoint" />
          </mxGeometry>
        </mxCell>
        <mxCell id="SWv0Pv7niIjmDPIGt94a-19" value="Establish Connection&lt;br&gt;Part 2: PairDIDWyse" style="edgeLabel;html=1;align=center;verticalAlign=middle;resizable=0;points=[];" vertex="1" connectable="0" parent="SWv0Pv7niIjmDPIGt94a-14">
          <mxGeometry x="0.002" y="-2" relative="1" as="geometry">
            <mxPoint as="offset" />
          </mxGeometry>
        </mxCell>
        <mxCell id="SWv0Pv7niIjmDPIGt94a-16" value="Mediator Agent" style="rounded=0;whiteSpace=wrap;html=1;" vertex="1" parent="1">
          <mxGeometry x="670" y="520" width="120" height="60" as="geometry" />
        </mxCell>
        <mxCell id="SWv0Pv7niIjmDPIGt94a-18" value="" style="endArrow=classic;startArrow=classic;html=1;rounded=0;entryX=0.5;entryY=1;entryDx=0;entryDy=0;exitX=0.5;exitY=0;exitDx=0;exitDy=0;" edge="1" parent="1" source="SWv0Pv7niIjmDPIGt94a-16" target="SWv0Pv7niIjmDPIGt94a-17">
          <mxGeometry width="50" height="50" relative="1" as="geometry">
            <mxPoint x="630" y="530" as="sourcePoint" />
            <mxPoint x="680" y="480" as="targetPoint" />
          </mxGeometry>
        </mxCell>
        <mxCell id="SWv0Pv7niIjmDPIGt94a-20" value="" style="endArrow=classic;html=1;rounded=0;exitX=1;exitY=0.5;exitDx=0;exitDy=0;entryX=0;entryY=0.5;entryDx=0;entryDy=0;" edge="1" parent="1" source="SWv0Pv7niIjmDPIGt94a-2" target="SWv0Pv7niIjmDPIGt94a-16">
          <mxGeometry width="50" height="50" relative="1" as="geometry">
            <mxPoint x="600" y="590" as="sourcePoint" />
            <mxPoint x="650" y="540" as="targetPoint" />
          </mxGeometry>
        </mxCell>
        <mxCell id="SWv0Pv7niIjmDPIGt94a-21" value="Issue VC" style="edgeLabel;html=1;align=center;verticalAlign=middle;resizable=0;points=[];" vertex="1" connectable="0" parent="SWv0Pv7niIjmDPIGt94a-20">
          <mxGeometry x="0.225" y="-1" relative="1" as="geometry">
            <mxPoint as="offset" />
          </mxGeometry>
        </mxCell>
        <mxCell id="SWv0Pv7niIjmDPIGt94a-22" value="" style="endArrow=classic;html=1;rounded=0;exitX=0;exitY=0.5;exitDx=0;exitDy=0;entryX=1;entryY=1;entryDx=0;entryDy=0;" edge="1" parent="1" source="SWv0Pv7niIjmDPIGt94a-17" target="SWv0Pv7niIjmDPIGt94a-25">
          <mxGeometry width="50" height="50" relative="1" as="geometry">
            <mxPoint x="730" y="460" as="sourcePoint" />
            <mxPoint x="570" y="545" as="targetPoint" />
          </mxGeometry>
        </mxCell>
        <mxCell id="SWv0Pv7niIjmDPIGt94a-23" value="Establish Connection&lt;br&gt;Part 1: Scan QR (getInvite)" style="edgeLabel;html=1;align=center;verticalAlign=middle;resizable=0;points=[];" vertex="1" connectable="0" parent="SWv0Pv7niIjmDPIGt94a-22">
          <mxGeometry x="0.002" y="-2" relative="1" as="geometry">
            <mxPoint as="offset" />
          </mxGeometry>
        </mxCell>
        <mxCell id="SWv0Pv7niIjmDPIGt94a-24" value="Retreive OCA Overlay&#39;s&lt;br&gt;Render" style="endArrow=classic;startArrow=classic;html=1;rounded=0;exitX=0.75;exitY=1;exitDx=0;exitDy=0;entryX=1;entryY=0.25;entryDx=0;entryDy=0;" edge="1" parent="1" source="SWv0Pv7niIjmDPIGt94a-17" target="SWv0Pv7niIjmDPIGt94a-6">
          <mxGeometry width="50" height="50" relative="1" as="geometry">
            <mxPoint x="340" y="590" as="sourcePoint" />
            <mxPoint x="570" y="850" as="targetPoint" />
          </mxGeometry>
        </mxCell>
        <mxCell id="SWv0Pv7niIjmDPIGt94a-25" value="Component&lt;br&gt;Retreive OCA&lt;br&gt;Display as Form" style="rounded=0;whiteSpace=wrap;html=1;" vertex="1" parent="1">
          <mxGeometry x="240" y="500" width="120" height="40" as="geometry" />
        </mxCell>
        <mxCell id="SWv0Pv7niIjmDPIGt94a-27" value="Issuing verifiable credential with OCA - Display in Wallet" style="swimlane;horizontal=0;" vertex="1" parent="1">
          <mxGeometry x="190" y="310" width="750" height="620" as="geometry" />
        </mxCell>
        <mxCell id="SWv0Pv7niIjmDPIGt94a-17" value="Wallet controller" style="rounded=0;whiteSpace=wrap;html=1;" vertex="1" parent="SWv0Pv7niIjmDPIGt94a-27">
          <mxGeometry x="610" y="60" width="120" height="60" as="geometry" />
        </mxCell>
        <mxCell id="SWv0Pv7niIjmDPIGt94a-26" value="Component&lt;br&gt;Retreive OCA&lt;br&gt;Display as Credential" style="rounded=0;whiteSpace=wrap;html=1;" vertex="1" parent="SWv0Pv7niIjmDPIGt94a-27">
          <mxGeometry x="610" y="40" width="120" height="40" as="geometry" />
        </mxCell>
        <mxCell id="SWv0Pv7niIjmDPIGt94a-28" value="Verifier Agent" style="rounded=0;whiteSpace=wrap;html=1;" vertex="1" parent="1">
          <mxGeometry x="1000" y="520" width="120" height="60" as="geometry" />
        </mxCell>
        <mxCell id="SWv0Pv7niIjmDPIGt94a-29" value="Verifier Controller" style="rounded=0;whiteSpace=wrap;html=1;" vertex="1" parent="1">
          <mxGeometry x="1170" y="520" width="120" height="60" as="geometry" />
        </mxCell>
        <mxCell id="SWv0Pv7niIjmDPIGt94a-30" value="" style="endArrow=classic;html=1;rounded=0;exitX=0.25;exitY=1;exitDx=0;exitDy=0;entryX=0.5;entryY=0;entryDx=0;entryDy=0;" edge="1" parent="1" source="SWv0Pv7niIjmDPIGt94a-16" target="SWv0Pv7niIjmDPIGt94a-3">
          <mxGeometry width="50" height="50" relative="1" as="geometry">
            <mxPoint x="660" y="700" as="sourcePoint" />
            <mxPoint x="710" y="650" as="targetPoint" />
          </mxGeometry>
        </mxCell>
        <mxCell id="SWv0Pv7niIjmDPIGt94a-31" value="Verify DID, schema, cred_def" style="edgeLabel;html=1;align=center;verticalAlign=middle;resizable=0;points=[];" vertex="1" connectable="0" parent="SWv0Pv7niIjmDPIGt94a-30">
          <mxGeometry x="-0.2159" relative="1" as="geometry">
            <mxPoint x="1" as="offset" />
          </mxGeometry>
        </mxCell>
      </root>
    </mxGraphModel>
  </diagram>
</mxfile>
